<svg xmlns="http://www.w3.org/2000/svg" viewBox="0 0 522.94 468.09"><defs><style>.cls-1{fill:#3a52a0;}.cls-2{fill:#fff;stroke:#1d1d1b;stroke-miterlimit:10;}.cls-3{fill:#4ebdc6;}.cls-4{fill:#009fe3;}.cls-5{fill:#82c0ea;}.cls-6{fill:#62c6ed;}.cls-7{fill:#1d71b8;}</style></defs><title>Logo_Hand</title><g id="Calque_1" data-name="Calque 1"><path class="cls-1" d="M290.1,269.1a106,106,0,0,0-37.12,0c-9.51,1.74-25.27,8.58-56.39,22.2-11.44,5-21.54,9.53-36.35,11.36a103.41,103.41,0,0,1-18.61.61c-1.73-.64-7.85-3-8.41-7.12-.65-4.8,6.31-11.13,12.43-13.82,2.45-1.07,5.39-1.83,7.59-4.78a12,12,0,0,0,2.09-5,353.77,353.77,0,0,1-66.74,8,353.32,353.32,0,0,1-46.7-2c-9.54-.83-15.13-6.93-14.56-10.77.52-3.52,6.5-7.15,14.36-6.79l67.38-.67a5.7,5.7,0,0,0,2.36-4.53,5.46,5.46,0,0,0-3.55-4.91,308.52,308.52,0,0,1-46.69.68c-10.5-.65-20.28-1.79-29.27-3.22-7.82-2-11.33-8.32-10-11.89,1-2.69,5-4.43,9.49-4.35q20.22.85,41.62,1,16.64.12,32.54-.22a5.13,5.13,0,0,0,3.08-4.5,5.19,5.19,0,0,0-1.66-3.79l-52.36.47c-6.33.13-11.31-4.19-11.85-8.76-.64-5.45,4.94-11.86,12.8-11.38l54.18-.2c.24,0,2.65.07,3.7-1.58a4.21,4.21,0,0,0-.29-4.22c-1.61-2.53-5.65-2.1-16.54-1.83-10.55.26-13.07,0-15.91-.75-2.62-.71-9.71-2.7-10.49-6.54-.92-4.5,3.37-10.36,10.17-10.5q22.93-2.4,47.43-4.05,29.94-2,57.78-2.49a76.15,76.15,0,0,1,23.27,6.51,78,78,0,0,1,16.57,10.45c14.74,11.82,25.54,25.59,38.2,42.25C271.27,242,280.32,254.46,290.1,269.1Z" transform="translate(-21.64 -29.41)"/><path class="cls-2" d="M209.13,245.36" transform="translate(-21.64 -29.41)"/><path class="cls-2" d="M350.86,147" transform="translate(-21.64 -29.41)"/></g><g id="Calque_2" data-name="Calque 2"><path class="cls-3" d="M357.54,323.51c-6.44,7.13-14.85,16.18-24.94,26.45-12.13,12.34-12.46,12-23.78,23.3-24,24.08-32.39,35.69-48.67,40.52-2.91.86-12.82,3.91-15.27,0-1.59-2.55-.07-6.2.34-7.13l13.24-28.17c-15.38,11-27.53,20.32-36,26.94s-17.68,12.49-26.14,19.24c-7.36,5.89-13,10.84-22.38,12.87-2.55.55-14,3.14-16.63-2-1.54-3.06-.51-7.44,2.38-10.86,7.66-6.38,16.08-12.95,25.29-19.54,9.92-7.09,19.54-13.32,28.66-18.8,1.62-3,1-6.35-1-7.81a5.27,5.27,0,0,0-4.08-.67c-5.17,4-12.09,9.36-20.38,15.48-11.8,8.72-10.6,7.4-19.34,13.89-16.74,12.43-20.44,16.74-29.82,19-2.67.64-12.34,3-14.61-.86-1.62-2.71.83-7.93,5.76-12.89l74-51.58a4.93,4.93,0,0,0-6.45-7.13c-8.55,4.8-22.14,13.31-30.54,20.7-13.81,12.17-20.78,16.5-24.64,18.73a115.29,115.29,0,0,1-12,6c-5.05,2-10.23-.53-11.53-4.41-.94-2.78.16-6.16,2.71-8.48,3.71-3.29,7.6-6.59,11.66-9.86a324,324,0,0,1,47-31.54c.18-.24,2.57-3.48,1.36-5.77-1.33-2.5-6-2-7.12-1.85-5.59.64-8.66,4.33-14.26,9.32a121.31,121.31,0,0,1-14.26,10.85c-5.47,3.95-12.2,2.2-14.25-1.69-1.46-2.77-.64-6.8,2-9.84a123.84,123.84,0,0,1,17-18.33c11.34-10,21.55-15.24,37.67-23.07q27.12-13.18,51.58-24.1c18.69-5.71,33.25-4.37,41.55-2.82,17.46,3.26,29.73,11.62,47.85,24A264.32,264.32,0,0,1,357.54,323.51Z" transform="translate(-21.64 -29.41)"/><path class="cls-2" d="M178.78,269.41" transform="translate(-21.64 -29.41)"/><path class="cls-2" d="M320.51,171" transform="translate(-21.64 -29.41)"/></g><g id="Calque_3" data-name="Calque 3"><path class="cls-4" d="M293.87,255.25c8.41-7.38,20.86-18.05,36.44-30.45,18.08-14.39,27.29-21.67,35.81-25.48,14.8-6.62,24.52-6,58.81-7.78,13.9-.73,34.42-2,59.71-4.22,7.33.28,12.21,5.64,11.88,10.36-.32,4.48-5.25,7.14-5.66,7.35L456,209.8c-.52.43-2.59,2.21-2.41,4.5a5.33,5.33,0,0,0,2.25,3.53c4.76,3.79,19-1,33.86-4,15.18-3.08,21.12-2.32,26.1-.14,2.55,1.11,8.62,3.77,8.9,8.56.22,3.7-3.09,7.61-8.21,9.71l-55.55,4.11a4.77,4.77,0,0,0-3.94,3.73,4.86,4.86,0,0,0,3.62,5.38l74.42-6c4.91.12,8.7,2.56,9.42,5.65.77,3.31-2.21,6.32-3.64,7.76-4.86,4.92-11.61,5.15-13.94,5.12l-59.66,3.76a4.35,4.35,0,1,0-1.89,8.48l56.52-3.45c9.38-2.68,17.34,2.4,18.22,7.22s-4.75,12.35-14.45,13.19c-16.09,1.92-33.56,3.37-52.25,4-20.1.7-38.86.38-56.08-.57l20.1,16.64c3.14,5.11,3,8.18,2.19,10.05-4.13,10-34.14,6.81-48.35,4.08a128.63,128.63,0,0,1-32-10.67,155.14,155.14,0,0,1-65.33-55.27Z" transform="translate(-21.64 -29.41)"/><path class="cls-2" d="M178.78,269.41" transform="translate(-21.64 -29.41)"/><path class="cls-2" d="M320.51,171" transform="translate(-21.64 -29.41)"/></g><g id="Calque_4" data-name="Calque 4"><path class="cls-5" d="M282.84,245.2c-9.6-14.79-18.37-26.37-24.82-34.45-13.53-16.95-20.12-22.55-27.95-37.34-4.12-7.8-15.56-29.42-7.46-39a12.3,12.3,0,0,1,5.54-3.61,32,32,0,0,1,7.22,3.37c2.49,1.56,4.78,3.48,9,8.29a136.08,136.08,0,0,1,9.81,12.67,634.34,634.34,0,0,1,6.23-69.48c2.53-17.41,5.65-33.75,9.09-48.91,1.2-4.43,5.09-7.34,8.95-7.18,4.83.21,9.17,5.24,8.29,11.15l-6,71.94,7.62,1q4.81-39.78,9.62-79.57a9.82,9.82,0,0,1,16.9.34q-4.8,40.61-9.61,81.22l8.62,2,7.29-61.32c.52-8.88,7.6-14,12.27-12.93,3.9.85,7.45,6.27,7,12.93q-5,33.32-9.95,66.63c2.64,1.41,6.21,2.78,8.82,1.33,3.59-2,3.18-8,3.55-21.66.63-23.56,2.51-28.9,5.9-30.4a8.13,8.13,0,0,1,5.27,0,9.83,9.83,0,0,1,6.9,7.16,7,7,0,0,1,.06,2.12c-.68,5.79-.07,27.59-.48,47.11s3.92,23.14.84,39.37a85.72,85.72,0,0,1-7.08,21.31,138.29,138.29,0,0,1-71.42,55.95Z" transform="translate(-21.64 -29.41)"/><path class="cls-2" d="M177.16,201.91" transform="translate(-21.64 -29.41)"/><path class="cls-2" d="M318.89,103.54" transform="translate(-21.64 -29.41)"/></g><g id="Nom"><path class="cls-6" d="M431.45,369.35q-5.44,14.26-10.14,28t-4.91,14.35h-4.48q-.17-.62-3.47-10.26t-8.71-24h-.07q-4.74,11.9-8.71,22.74t-4.24,11.55h-4.58q-.25-.93-4.14-12.65t-10.36-29.31l5.29-2.06q.12.45,3.77,11.35T385,403.52h.06q5-12.51,8.66-22.92t3.85-10.9h5q.12.54,3.91,11.8t7.69,22l.05,0q5.17-14.07,8.72-24.67t3.68-11.11Z" transform="translate(-21.64 -29.41)"/><path class="cls-6" d="M468.57,395.22a19.49,19.49,0,0,1-1.33,7.16,16.25,16.25,0,0,1-3.86,5.83,14.89,14.89,0,0,1-4.72,3.09,15.37,15.37,0,0,1-5.88,1.07,15.93,15.93,0,0,1-5.8-1.05,14.52,14.52,0,0,1-4.83-3.08,15.76,15.76,0,0,1-3.79-5.8,20,20,0,0,1-1.34-7.28,19.49,19.49,0,0,1,1.15-6.82,15.8,15.8,0,0,1,3.56-5.59,14.8,14.8,0,0,1,5-3.46,15.34,15.34,0,0,1,6.05-1.21,16,16,0,0,1,6.08,1.11,13.93,13.93,0,0,1,4.85,3.34,16.48,16.48,0,0,1,3.64,5.72A19.54,19.54,0,0,1,468.57,395.22Zm-5.15.23a18,18,0,0,0-1-5.9,11.86,11.86,0,0,0-3-4.83,8.61,8.61,0,0,0-3-1.89,10,10,0,0,0-3.6-.66,9.71,9.71,0,0,0-3.86.71,9.5,9.5,0,0,0-3.1,2.22,12.27,12.27,0,0,0-2.69,4.45,16.48,16.48,0,0,0-1,5.61,17.52,17.52,0,0,0,1,6A11.56,11.56,0,0,0,446.4,406a8.77,8.77,0,0,0,2.9,1.73,10.59,10.59,0,0,0,7.27-.11,9,9,0,0,0,3.08-2.07,12.39,12.39,0,0,0,2.8-4.51A16.11,16.11,0,0,0,463.42,395.45Z" transform="translate(-21.64 -29.41)"/><path class="cls-6" d="M496.32,382.72a52.86,52.86,0,0,0-5.43,1.77q-3.66,1.35-8.43,3.61,0,.36,0,3.24t0,5.37c0,2.53,0,5.54.08,9s.08,5.41.08,5.8h-5.09c0-.37,0-1.57.06-3.61s.07-5.53.07-10.47q0-3,0-8.38t-.09-10.15h5v4.89l0,0a70.53,70.53,0,0,1,7.18-3.58,41.58,41.58,0,0,1,5.67-2.06Z" transform="translate(-21.64 -29.41)"/><path class="cls-6" d="M508,411.53h-5.09q0-.58.08-8.7T503,386.2c0-2.43,0-5.49,0-9.18s0-7.94-.11-12.73H508q-.09,5.7-.11,13.24c0,5,0,8,0,9q0,3.31.06,13.91T508,411.53Zm23.08-.64-3.07,2.8q-7.12-7.26-12.71-12.63t-6.17-5.93v-.07q.78-.71,6.78-6.85t9.7-10.07l3.12,3.23q-3.84,3.7-8,7.81l-5.26,5.14v0Q524.8,404.28,531,410.89Z" transform="translate(-21.64 -29.41)"/><path class="cls-7" d="M259.66,441l-4.58,0q-4,0-12.2,0c0,4.67-.08,8.22-.11,10.64s0,5.71,0,9.88,0,8.09,0,12.23.06,6.89.09,8.26h-5.64q.06-2.06.12-8.38t0-12.38v-9.46c0-2.34,0-5.94-.1-10.79-4.86,0-8.79,0-11.81,0l-5,.05v-4.72l8.57,0q5,0,10.74,0,8.28,0,13.83,0l6,0Z" transform="translate(-21.64 -29.41)"/><path class="cls-7" d="M296.64,464.66a20.58,20.58,0,0,1-1.42,7.59,17,17,0,0,1-4.08,6.18,15.91,15.91,0,0,1-5,3.28,16.15,16.15,0,0,1-6.24,1.13,17,17,0,0,1-6.15-1.11,15.6,15.6,0,0,1-5.13-3.26,16.84,16.84,0,0,1-4-6.16,21,21,0,0,1-1.42-7.72,20.78,20.78,0,0,1,1.21-7.23,16.74,16.74,0,0,1,3.78-5.93,15.8,15.8,0,0,1,5.33-3.67,16.3,16.3,0,0,1,6.43-1.29,17,17,0,0,1,6.44,1.18,14.81,14.81,0,0,1,5.14,3.54,17.59,17.59,0,0,1,3.87,6.07A20.94,20.94,0,0,1,296.64,464.66Zm-5.47.24a19.08,19.08,0,0,0-1-6.26,12.55,12.55,0,0,0-3.23-5.12,9,9,0,0,0-3.16-2,10.5,10.5,0,0,0-3.81-.7,10.31,10.31,0,0,0-4.1.75,10.12,10.12,0,0,0-3.29,2.36,13.08,13.08,0,0,0-2.85,4.71,17.45,17.45,0,0,0-1,5.95,18.62,18.62,0,0,0,1.06,6.41,12.18,12.18,0,0,0,3.42,5,9.15,9.15,0,0,0,3.07,1.83,11.14,11.14,0,0,0,7.71-.12,9.37,9.37,0,0,0,3.26-2.19,13.23,13.23,0,0,0,3-4.78A17.07,17.07,0,0,0,291.17,464.9Z" transform="translate(-21.64 -29.41)"/><path class="cls-7" d="M332.22,447.06c0,.5,0,2.75-.05,6.76s-.05,7.83-.05,11.45q0,3.69,0,7.52c0,2.56,0,4.89,0,7q0,5.85-2,9.16a14.44,14.44,0,0,1-5.69,5.3,28,28,0,0,1-7.08,2.37,50.33,50.33,0,0,1-10.11.87l-.55-4.34c2.66,0,5.06-.18,7.18-.42a24.54,24.54,0,0,0,5.77-1.32,10.75,10.75,0,0,0,5.57-4,11.38,11.38,0,0,0,1.64-6h-1.64a37.86,37.86,0,0,1-8.37-1,20.8,20.8,0,0,1-7.35-3.09,15,15,0,0,1-6.77-13.3,14,14,0,0,1,2.64-8.44,18.44,18.44,0,0,1,7-5.81,24.15,24.15,0,0,1,6.85-2.14,58.55,58.55,0,0,1,9-.59h3.93ZM327,465.22q0-2.46,0-6.14c0-2.46,0-5-.09-7.68H326a32.26,32.26,0,0,0-5.55.41,22.38,22.38,0,0,0-5,1.53,11.5,11.5,0,0,0-5.33,4.41,11.92,11.92,0,0,0-1.85,6.55,11.08,11.08,0,0,0,1.83,6.42,12.26,12.26,0,0,0,4.91,4.13,23,23,0,0,0,4.83,1.6,26.72,26.72,0,0,0,5.83.62h1.26c0-.28,0-1.55,0-3.81S327,468.32,327,465.22Z" transform="translate(-21.64 -29.41)"/><path class="cls-7" d="M371.29,463.39H346.58a14.89,14.89,0,0,0,1.54,6.65,12.48,12.48,0,0,0,4.61,5,15.51,15.51,0,0,0,4.51,1.9,25.56,25.56,0,0,0,6.09.63c1.3,0,2.49,0,3.57-.1l2-.14-.62,4.54c-.18,0-.78.07-1.81.12s-2.23.09-3.62.09a28.69,28.69,0,0,1-9.52-1.42,18,18,0,0,1-6.65-3.91,17.62,17.62,0,0,1-3.77-5.33,16.47,16.47,0,0,1-1.56-7.22,20.34,20.34,0,0,1,1.16-7,19.2,19.2,0,0,1,3.49-5.84,13.39,13.39,0,0,1,5-3.59,15.9,15.9,0,0,1,6.21-1.27,15.43,15.43,0,0,1,5.64,1,11.45,11.45,0,0,1,4.27,2.91,14.71,14.71,0,0,1,3.08,5.38A25.25,25.25,0,0,1,371.29,463.39Zm-5.3-3.82a11.21,11.21,0,0,0-2.89-6.65,8.19,8.19,0,0,0-6.17-2.41,8.9,8.9,0,0,0-6.39,2.44,13,13,0,0,0-3.55,6.62Z" transform="translate(-21.64 -29.41)"/><path class="cls-7" d="M399.11,477.71l-.61,4.35c-.16,0-.55,0-1.18.06s-1.17,0-1.62,0q-7,0-10.6-2.92t-3.59-9q0-3.79.05-8.13c0-2.89.05-6.48.05-10.77h-5.74v-4h6.05v-8.1h5v8.1h12.23v4H386.88c0,.48,0,1.91-.05,4.27s-.06,4.13-.06,5.27v8.48q0,4.44,2.4,6.4t7.38,2l1.47,0Z" transform="translate(-21.64 -29.41)"/><path class="cls-7" d="M436.13,482h-5.4q0-1,.08-6.17t.06-6.78c0-1.19,0-2.93,0-5.25s0-4-.05-5.07q-.1-3.93-1.51-5.64t-4.85-1.71a14.64,14.64,0,0,0-5,1.17,42.75,42.75,0,0,0-6.43,3.17l.14,26.28h-5.4q0-1.33.09-10.75t0-15.5q0-4,0-10t-.12-13.86h5.4L413,451.29l0,0a51.88,51.88,0,0,1,8-3.8,17.17,17.17,0,0,1,5.33-1.06,9.28,9.28,0,0,1,7,2.76,10.37,10.37,0,0,1,2.65,7.53q0,4.31-.05,7.44c0,2.08-.05,3.77-.05,5.07q0,3.12.07,7.15C436.07,479.11,436.11,481,436.13,482Z" transform="translate(-21.64 -29.41)"/><path class="cls-7" d="M475.09,463.39H450.38a15.16,15.16,0,0,0,1.54,6.65,12.44,12.44,0,0,0,4.62,5,15.39,15.39,0,0,0,4.51,1.9,25.41,25.41,0,0,0,6.08.63c1.3,0,2.49,0,3.57-.1l2-.14-.61,4.54c-.19,0-.79.07-1.81.12s-2.24.09-3.63.09a28.74,28.74,0,0,1-9.52-1.42,18,18,0,0,1-6.64-3.91,17.64,17.64,0,0,1-3.78-5.33,16.47,16.47,0,0,1-1.56-7.22,20.11,20.11,0,0,1,1.17-7,19,19,0,0,1,3.48-5.84,13.43,13.43,0,0,1,5-3.59,15.81,15.81,0,0,1,6.2-1.27,15.43,15.43,0,0,1,5.64,1,11.37,11.37,0,0,1,4.27,2.91,14.57,14.57,0,0,1,3.08,5.38A24.94,24.94,0,0,1,475.09,463.39Zm-5.29-3.82a11.33,11.33,0,0,0-2.89-6.65,8.2,8.2,0,0,0-6.17-2.41,8.9,8.9,0,0,0-6.39,2.44,13.06,13.06,0,0,0-3.56,6.62Z" transform="translate(-21.64 -29.41)"/><path class="cls-7" d="M504.11,451.4a53.52,53.52,0,0,0-5.76,1.88q-3.87,1.43-8.93,3.82c0,.26,0,1.4,0,3.44s0,3.94,0,5.69q0,4,.08,9.57t.09,6.15h-5.4c0-.38,0-1.66.07-3.83s.06-5.86.06-11.1q0-3.18,0-8.89c0-3.8-.06-7.39-.1-10.77h5.3v5.2l0,0a75.94,75.94,0,0,1,7.62-3.79,45.22,45.22,0,0,1,6-2.19Z" transform="translate(-21.64 -29.41)"/></g></svg>